<svg width="59" height="20" viewBox="0 0 59 20" fill="none" xmlns="http://www.w3.org/2000/svg">
<g clip-path="url(#clip0_22_77)">
<path d="M14.5029 7.05463H7.60771V9.16865H12.4803C12.2505 12.1378 9.86015 13.3967 7.60771 13.3967C4.73471 13.3967 2.20647 11.0451 2.20647 7.76722C2.20647 4.56057 4.5968 2.11401 7.60771 2.11401C9.9291 2.11401 11.2852 3.6342 11.2852 3.6342L12.7102 2.11401C12.7102 2.11401 10.8714 0 7.51578 0C3.3097 0 0 3.72922 0 7.74347C0 11.6865 3.10284 15.5107 7.67667 15.5107C11.6989 15.5107 14.6408 12.6603 14.6408 8.45606C14.6408 7.5772 14.5029 7.05463 14.5029 7.05463Z" fill="#E5E5E5"/>
<path d="M20.134 5.53442C17.307 5.53442 15.2844 7.81471 15.2844 10.475C15.2844 13.1829 17.238 15.5107 20.157 15.5107C22.8001 15.5107 24.9606 13.4204 24.9606 10.5463C24.9836 7.22088 22.4554 5.53442 20.134 5.53442ZM20.18 7.48217C21.559 7.48217 22.8921 8.64606 22.8921 10.5225C22.8691 12.3515 21.559 13.5392 20.157 13.5392C18.617 13.5392 17.3989 12.2565 17.3989 10.4988C17.4219 8.78858 18.617 7.48217 20.18 7.48217Z" fill="#E5E5E5"/>
<path d="M30.6837 5.53442C27.8566 5.53442 25.834 7.81471 25.834 10.475C25.834 13.1829 27.7877 15.5107 30.7067 15.5107C33.3498 15.5107 35.5103 13.4204 35.5103 10.5463C35.5333 7.22088 33.0051 5.53442 30.6837 5.53442ZM30.7296 7.48217C32.1087 7.48217 33.4418 8.64606 33.4418 10.5225C33.4418 12.3515 32.1317 13.5392 30.7296 13.5392C29.1897 13.5392 27.9716 12.2565 27.9716 10.4988C27.9486 8.78858 29.1667 7.48217 30.7296 7.48217Z" fill="#E5E5E5"/>
<path d="M41.0265 5.53442C38.4293 5.53442 36.4067 7.88597 36.4067 10.5225C36.4067 13.5154 38.7741 15.5107 41.0035 15.5107C42.3826 15.5107 43.118 14.9406 43.6467 14.2993V15.2731C43.6467 16.9834 42.6354 18.0285 41.1184 18.0285C39.6475 18.0285 38.912 16.8883 38.6591 16.247L36.7974 17.0546C37.464 18.5035 38.7741 20 41.1414 20C43.7156 20 45.6923 18.3135 45.6923 14.7981V5.84321H43.6697V6.69832C43.0031 5.98573 42.1527 5.53442 41.0265 5.53442ZM41.2334 7.48217C42.4975 7.48217 43.8076 8.59856 43.8076 10.5225C43.8076 12.4703 42.4975 13.5392 41.2104 13.5392C39.8313 13.5392 38.5442 12.3753 38.5442 10.5463C38.5212 8.62231 39.8543 7.48217 41.2334 7.48217Z" fill="#E5E5E5"/>
<path d="M54.656 5.53442C52.2197 5.53442 50.1511 7.55343 50.1511 10.5225C50.1511 13.6579 52.4495 15.5344 54.8858 15.5344C56.9314 15.5344 58.1725 14.3705 58.931 13.3491L57.2532 12.209C56.8165 12.8978 56.104 13.5867 54.8858 13.5867C53.5298 13.5867 52.9092 12.8266 52.5185 12.0665L59 9.26364L58.6552 8.45604C58.0346 6.86459 56.5867 5.53442 54.656 5.53442ZM54.7249 7.43466C55.5983 7.43466 56.2419 7.90972 56.5177 8.50354L52.1967 10.38C52.0128 8.9311 53.3459 7.43466 54.7249 7.43466Z" fill="#E5E5E5"/>
<path d="M47.0713 15.2019H49.1858V0.522583H47.0713V15.2019Z" fill="#E5E5E5"/>
</g>
<defs>
<clipPath id="clip0_22_77">
<rect width="59" height="20" fill="white"/>
</clipPath>
</defs>
</svg>
