<svg width="105" height="105" viewBox="0 0 105 105" fill="none" xmlns="http://www.w3.org/2000/svg">
<path d="M98.3836 104.856H57.3616L44.3301 20.7987H98.3836C102.037 20.7987 105 23.7617 105 27.4151V98.211C105 101.893 102.037 104.856 98.3836 104.856Z" fill="#E5E5E5"/>
<path d="M98.3836 104.856H57.3616L44.3301 20.7987H55.9233L105 69.5302V98.211C105 101.893 102.037 104.856 98.3836 104.856Z" fill="#D9D9D9"/>
<path d="M57.3616 104.856L75.3986 85.0643H50.5726L57.3616 104.856Z" fill="#4455B7"/>
<path d="M6.61644 0H47.9836L75.3699 85.0644H6.61644C2.96301 85.0644 0 82.1014 0 78.448V6.61644C0 2.96301 2.96301 0 6.61644 0Z" fill="#518FF5"/>
<path d="M89.7247 49.5658H98.3548V45.5096H78.6781V38.9795H72.0616V45.5959H61.389V49.537H84.9206C84.9206 49.537 83.511 56.2685 77.8151 62.4822C73.5 57.3904 72.3205 54.485 72.3205 54.485H67.0849C67.0849 54.485 68.0918 56.9302 71.4 61.8494C72.0041 62.7411 73.1836 64.1507 74.6507 65.7617C70.3069 70.2206 67.8904 72.4069 67.8904 72.4069L71.1986 75.1685C71.1986 75.1685 74.2479 72.4069 77.6137 68.9836C83.1082 74.7946 89.9548 81.5261 89.9548 81.5261L93.0904 78.1315C93.0904 78.1315 89.0342 74.2768 81.5836 66.6247C81.2959 66.3083 81.0082 66.0206 80.7206 65.7329C81.9575 64.3809 83.1082 63.0288 84.0575 61.7631C88.4589 56.0959 89.7247 49.5658 89.7247 49.5658Z" fill="#607B88"/>
<path d="M29.3425 38.778C29.3425 41.0219 29.3425 43.2657 29.3425 45.5096C32.4781 45.5096 35.6137 45.5096 38.7205 45.5096C38.3466 47.6671 37.0808 49.6232 35.2685 50.8315C34.1178 51.6082 32.8233 52.0972 31.4712 52.3274C30.1192 52.5575 28.7096 52.5863 27.3575 52.3274C25.9767 52.0397 24.6822 51.4931 23.5315 50.6589C21.6904 49.3643 20.3096 47.4945 19.5904 45.3657C18.8425 43.2082 18.8425 40.8205 19.5904 38.663C20.1082 37.1383 20.9712 35.7575 22.0932 34.6068C23.474 33.1972 25.2863 32.1616 27.2425 31.7589C28.911 31.4137 30.6658 31.4712 32.3055 31.9602C33.6863 32.3917 34.9808 33.1397 36.0164 34.1465C37.0808 33.0822 38.1164 32.0465 39.1808 30.9822C39.7274 30.4068 40.3315 29.8602 40.8493 29.2849C39.2384 27.789 37.3685 26.6096 35.2973 25.8616C31.5863 24.5096 27.4151 24.4808 23.7041 25.7465C19.5041 27.1849 15.937 30.3205 13.9521 34.2904C13.2616 35.6712 12.7438 37.1096 12.4562 38.6054C11.7082 42.3452 12.226 46.3438 13.9521 49.7383C15.074 51.9534 16.6849 53.9383 18.6411 55.4917C20.4822 56.9589 22.6397 58.052 24.9123 58.6561C27.789 59.4328 30.8384 59.4041 33.7151 58.7424C36.3329 58.1383 38.8068 56.9013 40.763 55.0602C42.8342 53.1328 44.3301 50.6301 45.1068 47.8972C45.9699 44.9342 46.0849 41.7698 45.5384 38.7493C40.1301 38.778 34.7219 38.778 29.3425 38.778Z" fill="white"/>
</svg>
