<svg width="375" height="225" viewBox="0 0 375 225" fill="none" xmlns="http://www.w3.org/2000/svg">
<path fill-rule="evenodd" clip-rule="evenodd" d="M50.1035 35.0971C92.6131 32.7408 120.924 73.7539 148.332 106.247C177.149 140.41 213.709 175.879 205.941 219.846C197.902 265.347 155.042 295.512 111.913 312.379C72.8788 327.644 30.4624 321.425 -7.29066 303.234C-44.9731 285.077 -82.1511 257.166 -88.3459 215.888C-94.2091 176.819 -59.3677 147.821 -35.3256 116.427C-10.1859 83.5986 8.74909 37.3893 50.1035 35.0971Z" fill="#65A9FA"/>
<path fill-rule="evenodd" clip-rule="evenodd" d="M262.649 12.1046C293.601 6.68295 326.405 -7.66312 355.058 5.22258C383.875 18.1815 400.542 49.6055 411.706 79.136C422.025 106.432 411.275 136.223 415.499 165.094C420.63 200.162 451.326 233.595 439.179 266.894C427.279 299.515 390.577 321.114 356.359 327.215C323.623 333.051 295.301 304.655 262.649 298.368C237.667 293.557 212.22 301.56 187.71 294.742C158.241 286.543 126.239 278.549 106.752 254.997C86.4938 230.513 84.1573 196.639 80.4388 165.094C76.3466 130.378 61.86 89.1386 84.0105 62.0764C106.938 34.0648 152.351 44.3774 187.233 34.6198C212.936 27.4296 236.358 16.7099 262.649 12.1046Z" fill="#043C88"/>
</svg>
